# xmcd CD database file
#
# Track frame offsets:
#	150
#	14853
#	35063
#	47729
#	64908
#	77915
#	97590
#	133484
#	147579
#	162566
#	177473
#	187947
#	218762
#	231222
#	244514
#	256557
#	270315
#	290336
#	301165
#	312432
#	340196
#
# Disc length: 4739 seconds
#
# Revision: 0
# Processed by: cddbd v1.5.1PL2 Copyright (c) Steve Scherf et al.
# Submitted via: CDex 1.70beta2
#
DISCID=33128115
DTITLE=Lou Rawls - The Best of Lou Rawls
DYEAR=2006
DGENRE=Jazz
TTITLE0=Motherless Child
TTITLE1=God Bless the Child
TTITLE2=Nobody But Me
TTITLE3=Blues for the Weepers
TTITLE4=Goin' to Chicago Blues
TTITLE5=How Long. How Long Blues
TTITLE6=Southside Blues - Tobacco Road
TTITLE7=Something Stirring in My Soul
TTITLE8=Georgia on My Mind
TTITLE9=So Hard to Laugh, So Easy to Cry
TTITLE10=Old Folks
TTITLE11=Somebody Have Mercy
TTITLE12=Why (Do I Love You So)
TTITLE13=Street of Dreams
TTITLE14=I Wonder
TTITLE15=Let's Burn Down the Cornfield
TTITLE16=One for My Baby, One More for the Road
TTITLE17=Mean Old World
TTITLE18=Long Gone Blues
TTITLE19=Fine and Mellow
TTITLE20=Data-Track
EXTD=YEAR: 2006
EXTT0=
EXTT1=
EXTT2=
EXTT3=
EXTT4=
EXTT5=
EXTT6=
EXTT7=
EXTT8=
EXTT9=
EXTT10=
EXTT11=
EXTT12=
EXTT13=
EXTT14=
EXTT15=
EXTT16=
EXTT17=
EXTT18=
EXTT19=
EXTT20=
PLAYORDER=
